# xmcd
#
# Track frame offsets: 
#        150
#        18805
#        33570
#        62032
#        80182
#        101700
#        118062
#        143077
#        163257
#        186627
#        208170
#        231962
#        251150
#        267048
#        284560
#        298828
#        323550
#
# Disc length: 4602 seconds
#
# Revision: 0
# Processed by: cddbd v1.5.2PL0 Copyright (c) Steve Scherf et al.
# Submitted via: ExactAudioCopy v0.95b4
#
DISCID=0f11f811
DTITLE=Bonnie Raitt - Silver Light - Street Lights
DYEAR=2003
DGENRE=Rock and Roll
TTITLE0=01 Fool's Game
TTITLE1=02 I Can't Help You Now
TTITLE2=03 Silver Lining
TTITLE3=04 Time of Our Lives
TTITLE4=05 Gnawing' On It
TTITLE5=06 Monkey Business
TTITLE6=07 Wherever You May Be
TTITLE7=08 Valley of Pain 
TTITLE8=09 Hear Me Lord
TTITLE9=10 No Gettin' Over You
TTITLE10=11 Back Around
TTITLE11=12 Wounded Heart
TTITLE12=13 (08) Everything That Touches You
TTITLE13=14 (09) Got You On My Mind
TTITLE14=15 (10) You Got To Be Ready For Love (If You Wanna Be Mine)
TTITLE15=16 Cool Clear Water Running
TTITLE16=17 Longing In Their Hearts
EXTD=
EXTT0=
EXTT1=
EXTT2=
EXTT3=
EXTT4=
EXTT5=
EXTT6=
EXTT7=
EXTT8=
EXTT9=
EXTT10=
EXTT11=
EXTT12=
EXTT13=
EXTT14=
EXTT15=
EXTT16=
PLAYORDER=
